<svg id="Слой_3" data-name="Слой 3" xmlns="http://www.w3.org/2000/svg" viewBox="0 0 512 512"><defs><style>.cls-1{fill:#00e7ff;}.cls-2{fill:#fff;}</style></defs><rect class="cls-1" width="512" height="512" rx="256"/><path class="cls-2" d="M-326-615.94V-597a18,18,0,0,0,5.4,13.2,18,18,0,0,0,13.2,5.4v-37.5Zm0-27.9a9.66,9.66,0,0,0,2.7,6.6,7.68,7.68,0,0,0,6.6,2.7h18.6a9,9,0,0,0,6.6-2.7,10.14,10.14,0,0,0,3-6.6,7.43,7.43,0,0,0-3-6.6,12.25,12.25,0,0,0-6.6-3h-18.6a8.54,8.54,0,0,0-6.6,3A9.66,9.66,0,0,0-326-643.84Zm0-28.2h18.6v-112.5H-326Zm0-140.7a9,9,0,0,0,2.7,6.6,9,9,0,0,0,6.6,2.7h18.6a9,9,0,0,0,6.6-2.7,10.14,10.14,0,0,0,3-6.6,7.43,7.43,0,0,0-3-6.6,10.44,10.44,0,0,0-6.6-2.7h-18.6a9,9,0,0,0-6.6,2.7A9,9,0,0,0-326-812.74Zm0-28.2h18.6v-37.5a17.49,17.49,0,0,0-13.2,5.7,18.61,18.61,0,0,0-5.4,13.2Zm37.5,225V-597a18,18,0,0,0,5.4,13.2,18,18,0,0,0,13.2,5.4h187.5a18,18,0,0,0,13.2-5.4,19.05,19.05,0,0,0,5.7-13.2v-262.5a17.49,17.49,0,0,0-5.7-13.2,19.83,19.83,0,0,0-13.2-5.7h-187.5a17.49,17.49,0,0,0-13.2,5.7,18.61,18.61,0,0,0-5.4,13.2v18.6a18.12,18.12,0,0,1,13.2,5.7,17.08,17.08,0,0,1,5.4,13.2v18.6a19,19,0,0,1-5.4,13.5,16.55,16.55,0,0,1-13.2,5.4V-672a18.61,18.61,0,0,1,13.2,5.4,16.55,16.55,0,0,1,5.4,13.2v18.9a18,18,0,0,1-5.4,13.2A18,18,0,0,1-288.48-615.94Zm56.1-65.4a52.82,52.82,0,0,1,9.9-23.1,59.53,59.53,0,0,1,19.2-16.8,36.27,36.27,0,0,1-10.2-25.8v-18.9a36.56,36.56,0,0,1,10.8-26.4,35.77,35.77,0,0,1,26.7-11.1q15.9,0,26.4,11.1a39.48,39.48,0,0,1,11.1,26.4V-747a35.72,35.72,0,0,1-10.5,25.8,64,64,0,0,1,19.2,16.8,48.54,48.54,0,0,1,9.9,23.1,26.93,26.93,0,0,1-8.1,19.8,27.29,27.29,0,0,1-20.1,8.1h-56.1a27.94,27.94,0,0,1-20.1-8.1,25.48,25.48,0,0,1-8.1-19.8Z" transform="translate(450.73 984.44)"/></svg>