<svg id="Слой_3" data-name="Слой 3" xmlns="http://www.w3.org/2000/svg" viewBox="0 0 512 512"><defs><style>.cls-1{fill:#00e7ff;}.cls-2{fill:#fff;}</style></defs><rect class="cls-1" width="512" height="512" rx="256"/><path class="cls-2" d="M-65.48-1175.58a8,8,0,0,0,6.23-3,8,8,0,0,0,1.62-6.72l-5-23.91a15.24,15.24,0,0,0,4.68-11,15.19,15.19,0,0,0-5.17-11.39v-83l-20.26,12.53v70.52a15.23,15.23,0,0,0-5.17,11.39,15.23,15.23,0,0,0,4.69,11l-5,23.91a8,8,0,0,0,1.61,6.72,8,8,0,0,0,6.24,3Zm6.87-187.5-131.8-81.58a23.9,23.9,0,0,0-12.56-3.57,23.79,23.79,0,0,0-12.54,3.57l-131.79,81.58a12,12,0,0,0-5.66,10.16,12,12,0,0,0,5.66,10.17l131.79,81.59a23.79,23.79,0,0,0,12.54,3.57,24,24,0,0,0,12.56-3.57l131.8-81.59A12,12,0,0,0-53-1352.92,12,12,0,0,0-58.61-1363.08ZM-203-1237.34a44,44,0,0,1-23.2-6.6L-303-1291.53v82c0,24.25,44.83,43.89,100.08,43.89s100.1-19.64,100.1-43.89v-82l-76.87,47.59A44.15,44.15,0,0,1-203-1237.34Z" transform="translate(458.96 1562.96)"/></svg>