<svg id="Слой_3" data-name="Слой 3" xmlns="http://www.w3.org/2000/svg" viewBox="0 0 512 512"><defs><style>.cls-1{fill:#00e7ff;}.cls-2{fill:#fff;}</style></defs><rect class="cls-1" width="512" height="512" rx="256"/><path class="cls-2" d="M520-1452.36H475.49a70.31,70.31,0,0,0-70.31-70.32h0a70.32,70.32,0,0,0-70.32,70.32H290.33a35.15,35.15,0,0,0-35.15,35.15v159.38a35.15,35.15,0,0,0,35.15,35.15H520a35.16,35.16,0,0,0,35.16-35.15v-159.38A35.16,35.16,0,0,0,520-1452.36Zm-114.84-35.16a35.16,35.16,0,0,1,35.15,35.16H370A35.16,35.16,0,0,1,405.18-1487.52Zm85.54,117.19v11.72A17.57,17.57,0,0,1,473.15-1341h0a17.58,17.58,0,0,1-17.58-17.57v-11.72H354.79v11.72A17.58,17.58,0,0,1,337.21-1341h0a17.58,17.58,0,0,1-17.58-17.57v-11.72a17.58,17.58,0,0,1-17.58-17.58,17.58,17.58,0,0,1,17.58-17.58H490.72a17.58,17.58,0,0,1,17.58,17.58A17.58,17.58,0,0,1,490.72-1370.33Z" transform="translate(-146.35 1606.09)"/></svg>