<svg id="Слой_3" data-name="Слой 3" xmlns="http://www.w3.org/2000/svg" viewBox="0 0 512 512"><defs><style>.cls-1{fill:#00e7ff;}.cls-2{fill:#fff;}</style></defs><rect class="cls-1" width="512" height="512" rx="256"/><g id="language"><path class="cls-2" d="M-818.28-534.79c-96.25,0-175-78.75-175-175s78.75-175,175-175,175,78.75,175,175S-722-534.79-818.28-534.79Zm-36.46-102.09C-846-591.67-829.95-564-818.28-564s27.71-27.71,36.46-72.92Zm103.54,0c-4.37,24.79-11.67,48.13-20.42,65.63,33.55-11.67,62.71-35,80.21-65.63Zm-194,0c17.5,30.63,46.67,54,80.21,65.63-8.75-17.5-16-40.84-20.42-65.63ZM-746.82-666h68.54c2.91-13.13,5.83-29.17,5.83-43.75a144.88,144.88,0,0,0-7.29-43.75h-68.54c2.91,14.58,2.91,29.16,2.91,43.75S-745.37-680.63-746.82-666Zm-112.3,0H-776a387.69,387.69,0,0,0,2.92-43.75A387.36,387.36,0,0,0-776-753.54h-83.13A389.85,389.85,0,0,0-862-709.79,390.18,390.18,0,0,0-859.12-666Zm-97.7,0h68.54c-1.46-14.59-1.46-29.17-1.46-43.75s0-29.17,1.46-43.75h-68.54a144.58,144.58,0,0,0-7.3,43.75A144.68,144.68,0,0,0-956.82-666ZM-751.2-782.71h59.79c-17.5-30.63-46.66-54-80.21-65.63C-762.87-830.84-755.57-807.5-751.2-782.71Zm-103.54,0h74.37c-8.75-45.21-24.79-72.92-36.45-72.92S-846-827.92-854.74-782.71Zm-90.42,0h59.79c4.38-24.79,11.67-48.13,20.42-65.63C-898.49-836.67-926.2-813.34-945.16-782.71Z" transform="translate(1074.28 965.79)"/></g></svg>