<svg id="Слой_3" data-name="Слой 3" xmlns="http://www.w3.org/2000/svg" viewBox="0 0 512 512"><defs><style>.cls-1{fill:#00e7ff;}.cls-2,.cls-3{fill:#fff;}.cls-3{fill-rule:evenodd;}</style></defs><rect class="cls-1" width="512" height="512" rx="256"/><path class="cls-2" d="M422.31-632s-18.75,0-18.75-18.75,18.75-75,93.75-75,93.75,56.25,93.75,75S572.31-632,572.31-632Zm75-112.5a56.25,56.25,0,0,0,56.25-56.25A56.26,56.26,0,0,0,497.31-857a56.25,56.25,0,0,0-56.25,56.25A56.24,56.24,0,0,0,497.31-744.49Z" transform="translate(-185.06 1000.49)"/><path class="cls-3" d="M388.86-632a41.89,41.89,0,0,1-4.05-18.75c0-25.4,12.75-51.56,36.3-69.75a118.76,118.76,0,0,0-36.3-5.25c-75,0-93.75,56.25-93.75,75S309.81-632,309.81-632Z" transform="translate(-185.06 1000.49)"/><path class="cls-2" d="M375.43-744.49a46.87,46.87,0,0,0,46.88-46.87,46.88,46.88,0,0,0-46.88-46.88,46.88,46.88,0,0,0-46.87,46.88A46.87,46.87,0,0,0,375.43-744.49Z" transform="translate(-185.06 1000.49)"/></svg>