<svg id="Слой_3" data-name="Слой 3" xmlns="http://www.w3.org/2000/svg" viewBox="0 0 512 512"><defs><style>.cls-1{fill:#00e7ff;}.cls-2{fill:#fff;}</style></defs><rect class="cls-1" width="512" height="512" rx="256"/><path class="cls-2" d="M-787.13-1476.43a5.71,5.71,0,0,0-5.71,5.71,5.54,5.54,0,0,0,.16.83h-.16v135.48a5.71,5.71,0,0,0,5.71,5.71h135.46v-.17a4.81,4.81,0,0,0,.84.17,5.71,5.71,0,0,0,5.71-5.71A143.52,143.52,0,0,0-787.13-1476.43Z" transform="translate(1071.08 1556.9)"/><path class="cls-2" d="M-678.15-1301.52a5.71,5.71,0,0,0-5.71-5.72H-808.39a5.71,5.71,0,0,1-5.71-5.71V-1437h-.16a5.93,5.93,0,0,0,.16-.84,5.71,5.71,0,0,0-5.71-5.71c-.14,0-.25.07-.38.08v0c-.51,0-1,0-1.52,0A143.57,143.57,0,0,0-965.28-1300a143.57,143.57,0,0,0,143.57,143.57A143.57,143.57,0,0,0-678.15-1300c0-.46,0-.91,0-1.37C-678.18-1301.43-678.15-1301.47-678.15-1301.52Z" transform="translate(1071.08 1556.9)"/></svg>